<?xml version="1.0" encoding="UTF-8"?>
<svg width="200px" height="200px" viewBox="0 0 200 200" version="1.1" xmlns="http://www.w3.org/2000/svg" xmlns:xlink="http://www.w3.org/1999/xlink">
    <!-- Generator: Sketch 63.1 (92452) - https://sketch.com -->
    <title>folder-open</title>
    <desc>Created with Sketch.</desc>
    <g id="folder-open" stroke="none" stroke-width="1" fill="none" fill-rule="evenodd">
        <g transform="translate(0.000000, 23.000000)" fill-rule="nonzero" id="路径">
            <path d="M0,154 L33.158156,43.0020534 C33.637692,40.1423865 36.0990043,38.0358286 39.0025792,38 L192.865965,38 C197.279101,38 200.618771,41.9301848 199.903127,46.3367556 L170.546828,143.415298 C168.646517,149.700825 162.846701,154 156.271228,154 L0,154 L0,154 Z" fill="#8C95B0"></path>
            <path d="M38.9542042,37.7483893 L178,37.3007799 L178,36.9277721 C178,32.9576998 176.425505,29.1513106 173.624853,26.3510549 C170.824201,23.5507992 167.028408,21.9876098 163.077578,22.0074602 L89,22.380468 L82.1475642,8.3553747 C79.6551901,3.2439661 74.4858088,0.00283367127 68.8213213,0 L14.8481815,0 C6.6477573,0 0,6.68005121 0,14.920312 L0,154 L33.0075075,42.754154 C33.5040387,39.8502959 36.0146297,37.7311548 38.9467801,37.7409291 L38.9542042,37.7483893 Z" fill="#656D83"></path>
        </g>
    </g>
</svg>